Patient4_TMGait_0pt6_02_left_04_GRF.mot
version=1
nRows=58
nColumns=19
inDegrees=no
endheader
time	F1x	F1y	F1z	M1x	M1y	M1z	F2x	F2y	F2z	M2x	M2y	M2z	EC1x	EC1y	EC1z	EC2x	EC2y	EC2z
4.82	-0.58994	2.21	2.217	-1.4397	-4.9394	-3.6671	-28.3512	730.5889	-51.1499	274.1634	58.2812	705.6374	-0.0592	0.0182	-0.0073	-0.0462	0.0165	0.9585
4.8324	-0.55101	2.4596	1.596	-1.3568	-3.4922	-1.4056	-26.2086	734.6025	-49.5712	275.423	56.4143	706.3376	-0.0592	0.0182	-0.0073	-0.0462	0.0165	0.9585
4.8447	-0.4948	2.6649	1.0352	-1.2747	-2.2358	0.45043	-24.2139	739.8742	-48.1105	277.0553	54.552	707.7941	-0.0592	0.0182	-0.0073	-0.0462	0.0165	0.9585
4.8571	-0.44062	2.8252	0.58685	-1.209	-1.2654	1.8303	-22.4385	746.1006	-46.9123	278.9323	52.8415	709.8439	-0.0592	0.0182	-0.0073	-0.0462	0.0165	0.9585
4.8694	-0.40759	2.9469	0.25823	-1.1658	-0.58736	2.7723	-20.8527	752.8013	-46.0627	280.8628	51.367	712.1334	-0.0592	0.0182	-0.0073	-0.0462	0.0165	0.9585
4.8818	-0.39231	3.0298	0.046141	-1.1408	-0.1707	3.3369	-19.3807	759.4055	-45.5977	282.6274	50.1623	714.2059	-0.0592	0.0182	-0.0073	-0.0462	0.0165	0.9585
4.8941	-0.41906	3.071	-0.073798	-1.124	0.039136	3.6142	-17.9259	765.3179	-45.5064	284.0075	49.217	715.5615	-0.0592	0.0182	-0.0073	-0.0462	0.0165	0.9585
4.9065	-0.46681	3.0418	-0.11921	-1.0952	0.098969	3.6444	-16.4164	770.0031	-45.7385	284.8205	48.488	715.7458	-0.0592	0.0182	-0.0073	-0.0462	0.0165	0.9585
4.9189	-0.5564	2.9005	-0.11184	-1.0308	0.054061	3.46	-14.7884	773.0719	-46.1959	284.9514	47.8901	714.426	-0.0592	0.0182	-0.0073	-0.0462	0.0165	0.9585
4.9312	-0.67085	2.5789	-0.058532	-0.901	-0.062383	3.0218	-13.0084	774.3226	-46.7648	284.3652	47.3312	711.4417	-0.0592	0.0182	-0.0073	-0.0462	0.0165	0.9585
4.9436	-0.82672	2.0126	0.02178	-0.67634	-0.22101	2.311	-11.0616	773.7195	-47.3217	283.0933	46.7127	706.7762	-0.0592	0.0182	-0.0073	-0.0462	0.0165	0.9585
4.9559	-0.99355	1.1216	0.12355	-0.32206	-0.40448	1.257	-8.9622	771.3667	-47.7741	281.2141	45.9654	700.5357	-0.0592	0.0182	-0.0073	-0.0462	0.0165	0.9585
4.9683	-1.1667	-0.1446	0.22971	0.18741	-0.59181	-0.16586	-6.7319	767.4743	-48.0641	278.8371	45.0477	692.9197	-0.0592	0.0182	-0.0073	-0.0462	0.0165	0.9585
4.9806	-1.2834	-1.7826	0.33589	0.85305	-0.75631	-1.9556	-4.3881	762.3599	-48.1982	276.0997	43.9717	684.2227	-0.0592	0.0182	-0.0073	-0.0462	0.0165	0.9585
4.993	-1.2763	-3.6809	0.41871	1.6285	-0.84428	-3.9955	-1.9445	756.4271	-48.2265	273.1621	42.7842	674.8107	-0.0592	0.0182	-0.0073	-0.0462	0.0165	0.9585
5.0054	-1.0369	-5.5754	0.45809	2.4002	-0.78919	-6.0195	0.59739	750.1197	-48.2332	270.1925	41.5576	665.0822	-0.0592	0.0182	-0.0073	-0.0462	0.0165	0.9585
5.0177	-0.42863	-6.9651	0.40994	2.9571	-0.48886	-7.5025	3.2395	743.8854	-48.2988	267.3549	40.3526	655.4383	-0.0592	0.0182	-0.0073	-0.0462	0.0165	0.9585
5.0301	0.70582	-7.0385	0.2219	2.9633	0.17714	-7.5966	5.9978	738.1134	-48.494	264.7869	39.2167	646.1954	-0.0592	0.0182	-0.0073	-0.0462	0.0165	0.9585
5.0424	2.5158	-4.634	-0.17961	1.9432	1.3461	-5.1008	8.8813	733.1043	-48.8436	262.5916	38.1578	637.5971	-0.0592	0.0182	-0.0073	-0.0462	0.0165	0.9585
5.0548	5.096	1.7581	-0.87204	-0.71858	3.1347	1.5611	11.8989	729.0314	-49.3319	260.8235	37.1555	629.7844	-0.0592	0.0182	-0.0073	-0.0462	0.0165	0.9585
5.0671	8.4337	13.887	-1.9318	-5.7378	5.6141	14.221	15.0145	725.9354	-49.8713	259.4854	36.1451	622.8108	-0.0592	0.0182	-0.0073	-0.0462	0.0165	0.9585
5.0795	12.2766	33.5147	-3.4022	-13.8328	8.7271	34.749	18.1832	723.6559	-50.3457	258.5081	35.0466	616.5631	-0.0592	0.0182	-0.0073	-0.0462	0.0165	0.9585
5.0919	16.0688	61.9376	-5.2618	-25.5312	12.215	64.5332	21.3285	721.7564	-50.5952	257.7236	33.7594	610.7182	-0.0592	0.0182	-0.0073	-0.0462	0.0165	0.9585
5.1042	18.7769	99.28	-7.3528	-40.8738	15.4799	103.7726	24.379	719.4087	-50.4529	256.8241	32.1805	604.631	-0.0592	0.0182	-0.0073	-0.0462	0.0165	0.9585
5.1166	18.9344	143.5752	-9.3275	-59.0358	17.552	150.4742	27.2451	715.3719	-49.7389	255.3553	30.2028	597.324	-0.0592	0.0182	-0.0073	-0.0462	0.0165	0.9585
5.1289	15.1631	190.072	-10.5999	-78.035	17.262	199.7275	29.842	708.0634	-48.3138	252.7433	27.7559	587.5395	-0.0592	0.0182	-0.0073	-0.0462	0.0165	0.9585
5.1413	7.9047	231.8828	-10.1703	-95.0104	13.7714	244.3254	32.0875	695.8331	-46.1238	248.3915	24.8443	573.9619	-0.0592	0.0182	-0.0073	-0.0462	0.0165	0.9585
5.1536	-0.45553	263.6765	-7.5272	-107.7624	7.5499	278.511	33.9108	677.4131	-43.2365	241.8355	21.5667	555.5974	-0.0592	0.0182	-0.0073	-0.0462	0.0165	0.9585
5.166	-8.192	284.3597	-3.599	-115.8737	0.27815	300.8981	35.3031	652.2649	-39.859	232.8623	18.1043	532.0484	-0.0592	0.0182	-0.0073	-0.0462	0.0165	0.9585
5.1784	-14.435	296.2849	0.94685	-120.3398	-6.9731	313.8282	36.3296	620.6347	-36.2876	221.5409	14.6707	503.5529	-0.0592	0.0182	-0.0073	-0.0462	0.0165	0.9585
5.1907	-18.9796	303.3435	5.1325	-122.8104	-13.1193	321.4015	37.1073	583.4539	-32.7339	208.1995	11.3926	470.9001	-0.0592	0.0182	-0.0073	-0.0462	0.0165	0.9585
5.2031	-22.0545	309.4302	8.6096	-124.9199	-17.8825	327.7287	37.7212	542.1065	-29.2546	193.3471	8.2897	435.2487	-0.0592	0.0182	-0.0073	-0.0462	0.0165	0.9585
5.2154	-24.0421	317.5954	10.9901	-127.9532	-21.0349	335.9237	38.1836	498.1543	-25.7697	177.5682	5.3011	397.899	-0.0592	0.0182	-0.0073	-0.0462	0.0165	0.9585
5.2278	-25.1831	329.8976	12.4755	-132.7548	-22.889	348.0485	38.409	453.0658	-22.1672	161.4149	2.3779	360.0592	-0.0592	0.0182	-0.0073	-0.0462	0.0165	0.9585
5.2401	-25.5864	347.7296	13.2532	-139.8781	-23.7024	365.4103	38.2452	408.1368	-18.4005	145.3645	-0.46034	322.7988	-0.0592	0.0182	-0.0073	-0.0462	0.0165	0.9585
5.2525	-25.3593	371.7282	13.8135	-149.5432	-24.0169	388.5859	37.5669	364.3833	-14.5671	129.7827	-3.0982	286.9214	-0.0592	0.0182	-0.0073	-0.0462	0.0165	0.9585
5.2649	-24.64	401.5614	14.5777	-161.583	-24.3228	417.1404	36.2669	322.5498	-10.871	114.9238	-5.359	252.9986	-0.0592	0.0182	-0.0073	-0.0462	0.0165	0.9585
5.2772	-23.6908	436.2684	16.0321	-175.5643	-25.1998	450.0651	34.311	283.0807	-7.5681	100.9288	-7.0507	221.3203	-0.0592	0.0182	-0.0073	-0.0462	0.0165	0.9585
5.2896	-22.7194	474.7993	18.3657	-191.0483	-26.9099	486.194	31.6594	246.2293	-4.8766	87.8672	-8.0154	192.0283	-0.0592	0.0182	-0.0073	-0.0462	0.0165	0.9585
5.3019	-21.937	516.3983	21.5469	-207.7227	-29.4884	524.7393	28.3402	212.1154	-2.9347	75.7661	-8.1755	165.1376	-0.0592	0.0182	-0.0073	-0.0462	0.0165	0.9585
5.3143	-21.3202	560.4136	25.4059	-225.3387	-32.7549	564.9697	24.4226	180.7891	-1.7592	64.6348	-7.5563	140.6109	-0.0592	0.0182	-0.0073	-0.0462	0.0165	0.9585
5.3266	-20.8284	606.0867	29.6721	-243.602	-36.4186	606.1071	20.0595	152.2384	-1.2255	54.4679	-6.3147	118.3584	-0.0592	0.0182	-0.0073	-0.0462	0.0165	0.9585
5.339	-20.2756	652.2567	34.144	-262.055	-40.2158	646.9807	15.4856	126.4097	-1.1295	45.25	-4.6868	98.2793	-0.0592	0.0182	-0.0073	-0.0462	0.0165	0.9585
5.3514	-19.5223	697.3473	38.6275	-280.0626	-43.9059	686.1099	10.9806	103.1645	-1.2343	36.9406	-2.9498	80.2385	-0.0592	0.0182	-0.0073	-0.0462	0.0165	0.9585
5.3637	-18.4488	739.46	43.0789	-296.858	-47.3992	721.7211	6.8216	82.309	-1.3613	29.481	-1.3354	64.0662	-0.0592	0.0182	-0.0073	-0.0462	0.0165	0.9585
5.3761	-16.9967	776.704	47.3753	-311.6686	-50.5556	752.1284	3.2096	63.7197	-1.4007	22.8318	-0.00017671	49.6715	-0.0592	0.0182	-0.0073	-0.0462	0.0165	0.9585
5.3884	-15.135	807.3062	51.4421	-323.7725	-53.2923	775.8222	0.32925	47.3311	-1.3342	16.9753	0.98245	36.9829	-0.0592	0.0182	-0.0073	-0.0462	0.0165	0.9585
5.4008	-12.9015	829.8137	55.065	-332.5795	-55.4169	791.6303	-1.7184	33.2337	-1.1709	11.943	1.5839	26.0938	-0.0592	0.0182	-0.0073	-0.0462	0.0165	0.9585
5.4131	-10.3645	843.2265	58.1263	-337.6798	-56.8485	798.858	-2.8636	21.5985	-0.95809	7.7972	1.8241	17.1209	-0.0592	0.0182	-0.0073	-0.0462	0.0165	0.9585
5.4255	-7.6088	847.1551	60.4609	-338.9143	-57.4767	797.3729	-3.2215	12.6314	-0.7341	4.6085	1.7716	10.2222	-0.0592	0.0182	-0.0073	-0.0462	0.0165	0.9585
5.4379	-4.7996	841.8693	62.1019	-336.3836	-57.4072	787.6384	-3.0731	6.3274	-0.53394	2.3721	1.5551	5.3747	-0.0592	0.0182	-0.0073	-0.0462	0.0165	0.9585
5.4502	-2.1064	828.2893	63.0801	-330.4612	-56.7491	770.6576	-2.6773	2.3569	-0.37377	0.96584	1.2821	2.3436	-0.0592	0.0182	-0.0073	-0.0462	0.0165	0.9585
5.4626	0.31239	808.039	63.544	-321.8037	-55.7205	748.0423	-2.1997	0.20187	-0.25497	0.20376	1.016	0.72802	-0.0592	0.0182	-0.0073	-0.0462	0.0165	0.9585
5.4749	2.3543	783.3022	63.5838	-311.3045	-54.4623	721.801	-1.7402	-0.64941	-0.1694	-0.09839	0.78586	0.12934	-0.0592	0.0182	-0.0073	-0.0462	0.0165	0.9585
5.4873	3.967	756.5251	63.3823	-299.9666	-53.1762	694.1235	-1.3556	-0.6576	-0.11284	-0.10462	0.60541	0.19207	-0.0592	0.0182	-0.0073	-0.0462	0.0165	0.9585
5.4996	5.1969	730.1684	63.0524	-288.8046	-51.9559	667.1364	-1.055	-0.194	-0.070322	0.05498	0.46592	0.61693	-0.0592	0.0182	-0.0073	-0.0462	0.0165	0.9585
5.512	6.1023	706.4828	62.7198	-278.747	-50.8902	642.7471	-0.85799	0.49162	-0.039334	0.28977	0.37123	1.2175	-0.0592	0.0182	-0.0073	-0.0462	0.0165	0.9585
5.5244	6.7882	687.2779	62.4098	-270.5439	-49.9541	622.4265	-0.74056	1.2143	-0.013334	0.53681	0.30835	1.8395	-0.0592	0.0182	-0.0073	-0.0462	0.0165	0.9585
